<svg xmlns="http://www.w3.org/2000/svg" viewBox="0 0 212.12 98.53"><defs><style>.cls-1{fill:#323c41;}.cls-2{fill:#bdd631;fill-rule:evenodd;}.cls-3{fill:#f1592b;}</style></defs><title>beta_version</title><g id="Layer_2" data-name="Layer 2"><g id="Layer_1-2" data-name="Layer 1"><path class="cls-1" d="M57.41,75.53V41.39c-1.86,0-11.9,1.15-11.9,10.22V75c0,15-10,12.23-14.53,9.84,9.24,9.7,26.43,3.93,26.43-9.33m54.43,5.94a25.19,25.19,0,0,1-6.33-.8,16.27,16.27,0,0,1-5-2.1l1.92-5.5a14,14,0,0,0,4.31,1.84,19.24,19.24,0,0,0,5,.75,6.34,6.34,0,0,0,3.11-.62,2,2,0,0,0,1.09-1.82q0-1.76-3.06-2.33l-3.63-.62q-8.46-1.45-8.46-8a7.39,7.39,0,0,1,3-6.18,12.75,12.75,0,0,1,8-2.28,21,21,0,0,1,5.76.75,14.34,14.34,0,0,1,4.52,2.1l-2.08,5A16.15,16.15,0,0,0,116,60.11a16.52,16.52,0,0,0-4.1-.54,6.49,6.49,0,0,0-3,.54,1.72,1.72,0,0,0-1,1.58q0,1.56,2.7,2l3.27.62q4.83.88,7,2.85a7,7,0,0,1,2.18,5.45,7.77,7.77,0,0,1-3,6.49q-3,2.34-8.28,2.34m31.77-.78V65.48q0-5.4-4.72-5.4a4.81,4.81,0,0,0-3.94,1.71,7.61,7.61,0,0,0-1.4,4.93v14h-7.32V49.13h0V41.36c7.54,0,7.36,4.71,7.36,7.36h0v.41h0V57.7a8.42,8.42,0,0,1,3.17-2.93,10.14,10.14,0,0,1,11.6,2q2.62,3,2.62,8.28V80.69Zm24-5.61a6.22,6.22,0,0,0,4.8-2.08,8.64,8.64,0,0,0,0-10.8,6.59,6.59,0,0,0-9.6,0,8.64,8.64,0,0,0,0,10.8,6.22,6.22,0,0,0,4.8,2.08m0,6.38a14.77,14.77,0,0,1-7.47-1.84,12.82,12.82,0,0,1-5-5,14.26,14.26,0,0,1-1.74-7,14,14,0,0,1,1.87-7.29,12.82,12.82,0,0,1,5.09-4.85,15.12,15.12,0,0,1,7.21-1.71,14.78,14.78,0,0,1,7.48,1.84,12.83,12.83,0,0,1,5,5,14.28,14.28,0,0,1,1.74,7,14,14,0,0,1-1.87,7.29,12.84,12.84,0,0,1-5.09,4.85,15.11,15.11,0,0,1-7.21,1.71m30.52-6.38A6,6,0,0,0,202.83,73a7.9,7.9,0,0,0,1.82-5.4,7.9,7.9,0,0,0-1.82-5.4,6,6,0,0,0-4.72-2.08,6.26,6.26,0,0,0-4.88,2.08,7.76,7.76,0,0,0-1.87,5.4,7.76,7.76,0,0,0,1.87,5.4,6.26,6.26,0,0,0,4.88,2.08M184.4,86.92V54.48h7.11V58a10,10,0,0,1,3.66-3.14,10.72,10.72,0,0,1,4.9-1.11,11.22,11.22,0,0,1,6.33,1.82,11.84,11.84,0,0,1,4.23,5,16.43,16.43,0,0,1,1.48,7.09,16.15,16.15,0,0,1-1.58,7.32,11.69,11.69,0,0,1-4.31,4.85,11.44,11.44,0,0,1-6.15,1.69,10.82,10.82,0,0,1-4.85-1.06,8.73,8.73,0,0,1-3.5-3.14v8.57h0v7.77c-6.94,0-7.34-4-7.36-6.69ZM212,93.61h-5.5V92.49l3.23-4.39h-3V86.65h5.2v1.23l-3.14,4.27H212Zm-7.65,0-.26-.89H204a2,2,0,0,1-.86.75,3,3,0,0,1-1.28.26,2.43,2.43,0,0,1-1.85-.66,2.65,2.65,0,0,1-.62-1.89V86.65h1.9v4.07a2,2,0,0,0,.27,1.13,1,1,0,0,0,.85.38,1.28,1.28,0,0,0,1.15-.53,3.3,3.3,0,0,0,.36-1.76V86.65h1.9v7Z"/><path class="cls-2" d="M0,69.41V0C3.79,0,24.19,2.33,24.19,20.78v47.6c0,30.46,23.37,25.89,31.61,18.53C39.16,109.68,0,96.38,0,69.41M73,54.32h7.25v16.4a4.18,4.18,0,0,0,4.17,4.17H86.2a4.18,4.18,0,0,0,4.17-4.17V54.32h7.25V71.19A10.2,10.2,0,0,1,87.46,81.36H83.2A10.2,10.2,0,0,1,73,71.19ZM197.94,89.1h-2.28a2.28,2.28,0,0,0-2.28,2.28v2.28h2.28a2.28,2.28,0,0,0,2.28-2.28Z"/><path class="cls-3" d="M128.1,27.55v1h-1.69V17.66h1.69V22a3.25,3.25,0,0,1,2.73-1.25,3.44,3.44,0,0,1,2.67,1.17,4.45,4.45,0,0,1,0,5.73,3.44,3.44,0,0,1-2.67,1.17A3.25,3.25,0,0,1,128.1,27.55Zm4-1a2.57,2.57,0,0,0,.7-1.83,2.5,2.5,0,0,0-.7-1.8,2.33,2.33,0,0,0-1.76-.75,2.64,2.64,0,0,0-2.28,1.36v2.37a2.59,2.59,0,0,0,2.28,1.37A2.37,2.37,0,0,0,132.15,26.58Z"/><path class="cls-3" d="M136.33,21.88a3.75,3.75,0,0,1,2.84-1.16,3.26,3.26,0,0,1,2,.62,4.06,4.06,0,0,1,1.62,3.47v.44h-5.87c.2,1.3,1.33,2.06,2.89,2.06a4.74,4.74,0,0,0,2.47-.69V28a4.77,4.77,0,0,1-2.83.75,4.32,4.32,0,0,1-3-1.12,3.78,3.78,0,0,1-1.22-2.92A4,4,0,0,1,136.33,21.88ZM141.11,24a1.86,1.86,0,0,0-.55-1.27,1.93,1.93,0,0,0-1.47-.56A2,2,0,0,0,137,24Z"/><path class="cls-3" d="M144.89,22.41h-1.64V20.93h1.64V18.69h1.69v2.23H149v1.48h-2.42V26c0,.87.39,1.23,1.2,1.23a2.43,2.43,0,0,0,1.16-.28v1.45a3.05,3.05,0,0,1-1.7.38,2.12,2.12,0,0,1-2.34-2.3Z"/><path class="cls-3" d="M157.93,27.18v1.28a1.64,1.64,0,0,1-1,.25,1.47,1.47,0,0,1-1.61-1.09,3.57,3.57,0,0,1-2.83,1.19,3.13,3.13,0,0,1-2.06-.69,2.33,2.33,0,0,1-.81-1.89,2.19,2.19,0,0,1,.89-1.87,3.5,3.5,0,0,1,2.19-.67,5,5,0,0,1,2.45.59v-.42c0-1.11-.75-1.67-2.25-1.67a4.54,4.54,0,0,0-2.42.69V21.38a5.53,5.53,0,0,1,2.8-.66c2.12,0,3.55,1.06,3.55,2.94v2.86c0,.48.27.77.64.77A.89.89,0,0,0,157.93,27.18Zm-2.76-1.69a4.14,4.14,0,0,0-2-.55c-1.12,0-1.8.44-1.8,1.19s.67,1.22,1.66,1.22a3.11,3.11,0,0,0,2.19-.92Z"/><path class="cls-3" d="M165,28.66l-3.44-7.73h1.86l2.39,5.54,2.36-5.54h1.8l-3.44,7.73Z"/><path class="cls-3" d="M171.22,21.88a3.75,3.75,0,0,1,2.84-1.16,3.26,3.26,0,0,1,2,.62,4.06,4.06,0,0,1,1.62,3.47v.44h-5.87c.2,1.3,1.33,2.06,2.89,2.06a4.74,4.74,0,0,0,2.47-.69V28a4.77,4.77,0,0,1-2.83.75,4.32,4.32,0,0,1-3-1.12,3.78,3.78,0,0,1-1.22-2.92A4,4,0,0,1,171.22,21.88ZM176,24a1.86,1.86,0,0,0-.55-1.27,1.93,1.93,0,0,0-1.47-.56A2,2,0,0,0,171.85,24Z"/><path class="cls-3" d="M179,28.6V20.93h1.69v1.33a3.33,3.33,0,0,1,2.83-1.53.48.48,0,0,1,.16,0v1.69a4.13,4.13,0,0,0-.47,0,2.76,2.76,0,0,0-2.51,1.5v4.7Z"/><path class="cls-3" d="M184.09,28V26.43a5.41,5.41,0,0,0,3.12.92c1.06,0,1.69-.34,1.69-.91,0-.3-.19-.47-.47-.61a5.83,5.83,0,0,0-.73-.23l-1-.23c-1.75-.44-2.58-1.06-2.58-2.39s1.2-2.25,3.25-2.25a5.19,5.19,0,0,1,2.83.69V23a5.63,5.63,0,0,0-2.76-.78c-1,0-1.58.34-1.58.84,0,.3.2.47.48.61s.53.17.73.23l.89.19c1.75.39,2.62,1.2,2.62,2.42,0,1.39-1.34,2.33-3.34,2.33A6.19,6.19,0,0,1,184.09,28Z"/><path class="cls-3" d="M191.85,18.49a1.05,1.05,0,1,1,1.06,1.06A1,1,0,0,1,191.85,18.49Zm.22,10.11V20.93h1.69V28.6Z"/><path class="cls-3" d="M196.32,27.63a4.05,4.05,0,0,1,0-5.73,4.48,4.48,0,0,1,6,0,3.84,3.84,0,0,1,1.19,2.86,3.9,3.9,0,0,1-1.19,2.87,4.48,4.48,0,0,1-6,0Zm4.83-1a2.66,2.66,0,0,0,0-3.64,2.44,2.44,0,0,0-1.8-.73,2.58,2.58,0,0,0-1.81,4.37,2.58,2.58,0,0,0,3.61,0Z"/><path class="cls-3" d="M206.47,28.6h-1.69V20.93h1.69v1a3.67,3.67,0,0,1,2.81-1.22c1.81,0,2.84,1.2,2.84,3.19V28.6h-1.69V24.29c0-1.5-.8-2-1.8-2a2.71,2.71,0,0,0-2.17,1.25Z"/></g></g></svg>